# xmcd CD database file
#
# Track frame offsets:
#	150
#	16774
#	31130
#	47576
#	68108
#	84734
#	98358
#	112230
#	128459
#	143701
#	159048
#	174701
#
# Disc length: 2510 seconds
#
# Revision: 0
# Processed by: cddbd v1.5.1PL2 Copyright (c) Steve Scherf et al.
# Submitted via: CDex 1.51
#
DISCID=8909cc0c
DTITLE=Tamara Stewart - Tamara Stewart
DYEAR=2005
DGENRE=Country
TTITLE0=Girl In The Band
TTITLE1=Stolen
TTITLE2=Crush On You
TTITLE3=Brighter Shade Of Blue
TTITLE4=Song Girl
TTITLE5=Try
TTITLE6=Before I Let You Down
TTITLE7=Miracles
TTITLE8=All Woman
TTITLE9=James
TTITLE10=Military Road
TTITLE11=Love And Leave You
EXTD=YEAR: 2005
EXTT0=
EXTT1=
EXTT2=
EXTT3=
EXTT4=
EXTT5=
EXTT6=
EXTT7=
EXTT8=
EXTT9=
EXTT10=
EXTT11=
PLAYORDER=
